<svg width="83" height="54" viewBox="0 0 83 54" fill="none" xmlns="http://www.w3.org/2000/svg">
<path d="M44.6578 8.82891C45.5795 13.5643 51.6552 15.384 57.0123 16.9891C58.8797 17.549 60.6438 18.0807 62.1158 18.7152C68.1585 21.3132 75.008 24.2582 78.7491 31.0695C81.1875 35.5092 81.0682 41.1982 78.452 45.5575C76.0914 49.4825 72.1955 51.6186 67.6439 51.2786C59.2966 50.6923 52.7141 43.3188 47.5282 28.7417C46.0945 24.7096 44.7532 20.6053 43.5452 16.5473C43.3343 15.8425 43.0037 15.0657 42.665 14.2625C41.9709 12.6168 41.2565 10.9097 41.164 9.27612L44.6621 8.83335L44.6578 8.82891ZM68.3515 47.7554C72.3498 47.8361 74.4971 45.2601 75.4243 43.7167C77.4042 40.428 77.4952 36.1351 75.6538 32.7866C72.4972 27.0401 66.5103 24.4694 60.7209 21.9766C59.4378 21.4242 57.7682 20.9249 55.9998 20.3931C53.2028 19.5577 50.0876 18.6202 47.4242 17.174C48.4842 20.6329 49.6347 24.111 50.8511 27.5426C55.5125 40.6514 61.0846 47.2561 67.8887 47.7373L68.3471 47.7596L68.3515 47.7554Z" fill="white" stroke="#212121" stroke-width="5"/>
<path d="M40.2658 8.74014L43.7431 9.32384C43.5846 10.9567 42.7975 12.6335 42.0375 14.2542C41.671 15.0387 41.3093 15.7972 41.0702 16.4929C39.6811 20.5376 38.1751 24.5843 36.5979 28.5165C30.8274 42.8722 23.9524 49.9738 15.5882 50.2225C11.0486 50.3657 7.21591 48.0866 5.0159 44.0607C2.57794 39.5993 2.69271 33.9189 5.30845 29.5813C9.33046 22.9181 16.2889 20.2565 22.4271 17.909C23.9236 17.3344 25.7076 16.8787 27.5962 16.3947C33.0138 15.003 39.1581 13.4302 40.2745 8.73596L40.2658 8.74014ZM15.0235 46.6779L15.4824 46.6741C22.2959 46.4723 28.1303 40.0938 33.3175 27.184C34.6621 23.8389 35.9522 20.4057 37.1602 16.9665C34.4406 18.304 31.2901 19.1149 28.4617 19.8367C26.6732 20.2966 24.9849 20.7281 23.6804 21.2282C17.7995 23.4808 11.7179 25.8077 8.3274 31.4263C6.35233 34.6934 6.2656 38.9863 8.11098 42.3523C8.97074 43.9361 11.0208 46.597 15.0235 46.6779Z" fill="white" stroke="#212121" stroke-width="5"/>
</svg>
