<svg width="33" height="33" viewBox="0 0 33 33" fill="none" xmlns="http://www.w3.org/2000/svg">
<path d="M12.6426 19.9986V19.3487L12.1105 18.9754C10.05 17.5295 8.70508 15.1592 8.70508 12.4648C8.70508 10.3597 9.54135 8.34075 11.0299 6.85218C12.5185 5.36361 14.5374 4.52734 16.6426 4.52734C18.7477 4.52734 20.7667 5.36361 22.2552 6.85218C23.7438 8.34075 24.5801 10.3597 24.5801 12.4648C24.5801 15.1592 23.2352 17.5295 21.1746 18.9754L20.6426 19.3487V19.9986V22.9648C20.6426 22.9814 20.636 22.9973 20.6243 23.009L21.5082 23.8929L20.6243 23.009C20.6125 23.0208 20.5967 23.0273 20.5801 23.0273H12.7051C12.6885 23.0273 12.6726 23.0208 12.6609 23.009L11.777 23.8929L12.6609 23.009C12.6492 22.9973 12.6426 22.9814 12.6426 22.9648V19.9986ZM13.9734 28.259C13.9617 28.2473 13.9551 28.2314 13.9551 28.2148V28.1523H19.3301V28.2148C19.3301 28.2314 19.3235 28.2473 19.3118 28.259L20.1957 29.1429L19.3118 28.259C19.3 28.2708 19.2842 28.2773 19.2676 28.2773H14.0176C14.001 28.2773 13.9851 28.2708 13.9734 28.259L13.0895 29.1429L13.9734 28.259Z" stroke="#212121" stroke-width="2.5"/>
</svg>
